<svg width="256" height="256" viewBox="0 0 256 256" fill="none" xmlns="http://www.w3.org/2000/svg">
  <rect width="256" height="256" rx="40" fill="url(#bg)"/>
  <circle cx="202" cy="50" r="32" fill="#F6E8FF" fill-opacity="0.6"/>
  <circle cx="60" cy="208" r="46" fill="#FFE2C8" fill-opacity="0.8"/>
  <rect x="60" y="60" width="136" height="140" rx="30" fill="#FFF8F2"/>
  <rect x="80" y="84" width="96" height="22" rx="11" fill="#D8CFE1"/>
  <rect x="88" y="110" width="30" height="68" rx="14" fill="#4B2666"/>
  <rect x="138" y="110" width="30" height="68" rx="14" fill="#7A529A"/>
  <rect x="82" y="178" width="42" height="10" rx="5" fill="#D8CFE1"/>
  <rect x="132" y="178" width="42" height="10" rx="5" fill="#D8CFE1"/>
  <path d="M72 74C72 67.3726 77.3726 62 84 62H172C178.627 62 184 67.3726 184 74V189C184 195.627 178.627 201 172 201H84C77.3726 201 72 195.627 72 189V74Z" stroke="#E7DDED" stroke-width="2"/>
  <defs>
    <linearGradient id="bg" x1="26" y1="18" x2="224" y2="238" gradientUnits="userSpaceOnUse">
      <stop stop-color="#F5F1FA"/>
      <stop offset="1" stop-color="#FFF3E6"/>
    </linearGradient>
  </defs>
</svg>
